<?xml version="1.0" standalone="no"?><!DOCTYPE svg PUBLIC "-//W3C//DTD SVG 1.1//EN" "http://www.w3.org/Graphics/SVG/1.1/DTD/svg11.dtd"><svg t="1549960387715" class="icon" style="" viewBox="0 0 1024 1024" version="1.1" xmlns="http://www.w3.org/2000/svg" p-id="4763" xmlns:xlink="http://www.w3.org/1999/xlink" width="32" height="32"><defs><style type="text/css"></style></defs><path d="M877.568 822.0672H330.1376l0.2048-0.2048c0.2048-0.2048 0.4096-0.2048 0.6144-0.4096 0.4096-0.4096 1.024-0.8192 1.4336-1.2288 0.2048-0.2048 0.4096-0.4096 0.6144-0.4096l0.2048-0.2048 400.9984-400.9984 56.7296-56.7296c21.2992-21.2992 33.1776-49.7664 33.1776-79.872s-11.6736-58.5728-33.1776-79.872c-21.2992-21.2992-49.7664-33.1776-79.872-33.1776s-58.5728 11.6736-79.872 33.1776l-56.7296 56.7296-57.5488 57.5488L173.4656 659.8656l-0.2048 0.2048c-0.2048 0.2048-0.4096 0.4096-0.4096 0.6144-0.4096 0.4096-0.8192 0.8192-1.2288 1.4336-0.2048 0.2048-0.2048 0.4096-0.4096 0.6144-0.4096 0.6144-0.8192 1.4336-1.2288 2.048v0.2048c-0.4096 0.6144-0.6144 1.4336-1.024 2.048 0 0.2048-0.2048 0.4096-0.2048 0.6144l-0.6144 1.8432c0 0.2048 0 0.2048-0.2048 0.4096l-37.4784 168.1408c-0.2048 0.8192-0.2048 1.6384-0.4096 2.4576v3.072c0 0.6144 0 1.024 0.2048 1.6384 0 0.2048 0 0.4096 0.2048 0.8192 0.2048 0.6144 0.2048 1.2288 0.4096 1.8432 0 0.2048 0 0.2048 0.2048 0.4096 0.2048 0.8192 0.4096 1.4336 0.8192 2.2528v0.2048c0.2048 0.6144 0.6144 1.2288 1.024 1.8432 0.2048 0.2048 0.2048 0.4096 0.4096 0.6144 0.2048 0.4096 0.6144 1.024 1.024 1.4336 0.2048 0.2048 0.2048 0.4096 0.4096 0.6144 0.4096 0.6144 1.024 1.2288 1.4336 1.6384l0.2048 0.2048c0.4096 0.4096 0.8192 0.8192 1.2288 1.024 0.2048 0.2048 0.4096 0.2048 0.6144 0.4096 0.4096 0.2048 0.6144 0.6144 1.024 0.8192 0.2048 0.2048 0.4096 0.2048 0.4096 0.2048 0.4096 0.2048 0.8192 0.4096 1.2288 0.8192 0.2048 0 0.2048 0.2048 0.4096 0.2048 0.4096 0.2048 1.024 0.4096 1.4336 0.6144 0.2048 0 0.2048 0 0.4096 0.2048 0.4096 0.2048 1.024 0.4096 1.6384 0.6144h0.4096c0.6144 0.2048 1.024 0.2048 1.6384 0.4096h0.6144c0.4096 0 0.8192 0.2048 1.4336 0.2048 0.6144 0 1.4336 0.2048 2.048 0.2048h727.04c11.264 0 20.48-9.216 20.48-20.48s-9.6256-20.2752-20.8896-20.2752z m-346.112-462.2336l101.7856 101.7856L318.8736 776.192 217.088 674.4064l314.368-314.5728z m57.5488-57.5488l101.7856 101.7856-28.4672 28.4672-101.7856-101.7856 28.4672-28.4672zM277.9136 793.1904l-100.352 22.3232 22.3232-100.352 39.1168 39.1168 38.912 38.912z m382.3616-561.9712c13.5168-13.5168 31.744-21.0944 50.9952-21.0944 19.2512 0 37.2736 7.5776 50.9952 21.0944 13.5168 13.5168 21.0944 31.744 21.0944 50.9952s-7.5776 37.2736-21.0944 50.9952l-42.1888 42.1888-101.7856-101.7856 41.984-42.3936z" p-id="4764" fill="#1195db"></path><path d="M568.5248 713.3184c0 11.264 9.216 20.48 20.48 20.48h288.5632c11.264 0 20.48-9.216 20.48-20.48s-9.216-20.48-20.48-20.48H589.0048c-11.264 0-20.48 9.216-20.48 20.48z" p-id="4765" fill="#1195db"></path></svg>