<svg xmlns="http://www.w3.org/2000/svg" width="60.434" height="9.478" viewBox="0 0 60.434 9.478"><path d="M8.084,9.432,5,7.763,1.94,9.478l.635-3.449L0,3.648l3.476-.462L4.944,0,6.458,3.163l3.483.413L7.4,5.993Z" fill="#ffc400"/><path d="M1372.039,9.432l-3.084-1.669-3.06,1.714.635-3.449-2.575-2.38,3.476-.462L1368.9,0l1.514,3.163,3.483.413-2.541,2.417Z" transform="translate(-1351.331)" fill="#ffc400"/><path d="M2735.929,9.432l-3.084-1.669-3.06,1.714.635-3.449-2.575-2.38,3.476-.462L2732.789,0l1.514,3.163,3.482.413-2.541,2.417Z" transform="translate(-2702.599)" fill="#ffc400"/><path d="M4099.888,9.432,4096.8,7.763l-3.061,1.714.635-3.449-2.575-2.38,3.476-.462L4096.749,0l1.513,3.163,3.483.413L4099.2,5.993Z" transform="translate(-4053.935)" fill="#ffc400"/><path d="M5463.839,9.432l-3.084-1.669-3.061,1.714.635-3.449-2.574-2.38,3.476-.462L5460.7,0l1.513,3.163,3.483.413-2.541,2.417Z" transform="translate(-5405.262)" fill="#ffc400"/></svg>